<svg xmlns="http://www.w3.org/2000/svg" xmlns:xlink="http://www.w3.org/1999/xlink" width="500" zoomAndPan="magnify" viewBox="0 0 375 374.999991" height="500" preserveAspectRatio="xMidYMid meet" version="1.0"><defs><g/><clipPath id="c7d0178679"><path d="M 51 197.546875 L 324 197.546875 L 324 200.546875 L 51 200.546875 Z M 51 197.546875 " clip-rule="nonzero"/></clipPath><clipPath id="f21ff50f7b"><path d="M 0 278.957031 L 37.632812 278.957031 L 37.632812 375 L 0 375 Z M 0 278.957031 " clip-rule="nonzero"/></clipPath></defs><rect x="-37.5" width="450" fill="#101516" y="-37.499999" height="449.999989" fill-opacity="1"/><g fill="#fffced" fill-opacity="1"><g transform="translate(116.857899, 150.345561)"><g><path d="M 0.53125 -2.328125 L 0.53125 -5.21875 L 2.5 -5.21875 L 2.5 -3 C 2.9375 -2.664062 3.453125 -2.378906 4.046875 -2.140625 C 4.648438 -1.898438 5.328125 -1.78125 6.078125 -1.78125 C 6.503906 -1.78125 6.914062 -1.84375 7.3125 -1.96875 C 7.71875 -2.09375 8.070312 -2.273438 8.375 -2.515625 C 8.6875 -2.753906 8.9375 -3.054688 9.125 -3.421875 C 9.3125 -3.785156 9.40625 -4.210938 9.40625 -4.703125 C 9.40625 -5.566406 9.203125 -6.234375 8.796875 -6.703125 C 8.398438 -7.171875 7.898438 -7.53125 7.296875 -7.78125 C 6.703125 -8.039062 6.050781 -8.257812 5.34375 -8.4375 C 4.644531 -8.625 3.988281 -8.875 3.375 -9.1875 C 2.769531 -9.507812 2.265625 -9.953125 1.859375 -10.515625 C 1.453125 -11.085938 1.238281 -11.890625 1.21875 -12.921875 C 1.207031 -13.472656 1.285156 -14.023438 1.453125 -14.578125 C 1.617188 -15.128906 1.890625 -15.628906 2.265625 -16.078125 C 2.648438 -16.523438 3.160156 -16.890625 3.796875 -17.171875 C 4.429688 -17.453125 5.207031 -17.59375 6.125 -17.59375 C 6.425781 -17.59375 6.75 -17.578125 7.09375 -17.546875 C 7.445312 -17.515625 7.816406 -17.445312 8.203125 -17.34375 C 8.585938 -17.25 8.984375 -17.097656 9.390625 -16.890625 C 9.796875 -16.691406 10.195312 -16.425781 10.59375 -16.09375 L 10.59375 -13.65625 L 8.625 -13.65625 L 8.625 -15.125 C 8.3125 -15.257812 7.945312 -15.375 7.53125 -15.46875 C 7.113281 -15.570312 6.65625 -15.625 6.15625 -15.625 C 5.1875 -15.625 4.46875 -15.347656 4 -14.796875 C 3.53125 -14.242188 3.296875 -13.59375 3.296875 -12.84375 C 3.296875 -12.34375 3.410156 -11.9375 3.640625 -11.625 C 3.878906 -11.320312 4.191406 -11.066406 4.578125 -10.859375 C 4.960938 -10.648438 5.398438 -10.46875 5.890625 -10.3125 C 6.378906 -10.164062 6.878906 -10.003906 7.390625 -9.828125 C 7.898438 -9.660156 8.398438 -9.453125 8.890625 -9.203125 C 9.378906 -8.960938 9.816406 -8.644531 10.203125 -8.25 C 10.585938 -7.863281 10.894531 -7.382812 11.125 -6.8125 C 11.351562 -6.238281 11.46875 -5.523438 11.46875 -4.671875 C 11.46875 -3.921875 11.332031 -3.242188 11.0625 -2.640625 C 10.789062 -2.046875 10.414062 -1.535156 9.9375 -1.109375 C 9.457031 -0.679688 8.898438 -0.351562 8.265625 -0.125 C 7.640625 0.09375 6.976562 0.203125 6.28125 0.203125 C 5.644531 0.203125 5.023438 0.132812 4.421875 0 C 3.828125 -0.144531 3.28125 -0.332031 2.78125 -0.5625 C 2.28125 -0.800781 1.832031 -1.070312 1.4375 -1.375 C 1.039062 -1.675781 0.738281 -1.992188 0.53125 -2.328125 Z M 0.53125 -2.328125 "/></g></g></g><g fill="#fffced" fill-opacity="1"><g transform="translate(132.381007, 150.345561)"><g><path d="M 0.875 -8.71875 C 0.875 -9.9375 1.109375 -11.09375 1.578125 -12.1875 C 2.046875 -13.28125 2.679688 -14.234375 3.484375 -15.046875 C 4.296875 -15.867188 5.242188 -16.515625 6.328125 -16.984375 C 7.410156 -17.460938 8.566406 -17.703125 9.796875 -17.703125 C 11.015625 -17.703125 12.171875 -17.460938 13.265625 -16.984375 C 14.359375 -16.515625 15.3125 -15.867188 16.125 -15.046875 C 16.9375 -14.234375 17.582031 -13.28125 18.0625 -12.1875 C 18.539062 -11.09375 18.78125 -9.9375 18.78125 -8.71875 C 18.78125 -7.488281 18.539062 -6.332031 18.0625 -5.25 C 17.582031 -4.164062 16.9375 -3.21875 16.125 -2.40625 C 15.3125 -1.601562 14.359375 -0.96875 13.265625 -0.5 C 12.171875 -0.03125 11.015625 0.203125 9.796875 0.203125 C 8.566406 0.203125 7.410156 -0.03125 6.328125 -0.5 C 5.242188 -0.96875 4.296875 -1.601562 3.484375 -2.40625 C 2.679688 -3.21875 2.046875 -4.164062 1.578125 -5.25 C 1.109375 -6.332031 0.875 -7.488281 0.875 -8.71875 Z M 2.953125 -8.71875 C 2.953125 -7.757812 3.128906 -6.859375 3.484375 -6.015625 C 3.847656 -5.171875 4.34375 -4.4375 4.96875 -3.8125 C 5.59375 -3.1875 6.320312 -2.691406 7.15625 -2.328125 C 7.988281 -1.960938 8.878906 -1.78125 9.828125 -1.78125 C 10.773438 -1.78125 11.664062 -1.960938 12.5 -2.328125 C 13.332031 -2.691406 14.0625 -3.1875 14.6875 -3.8125 C 15.3125 -4.4375 15.800781 -5.171875 16.15625 -6.015625 C 16.519531 -6.859375 16.703125 -7.757812 16.703125 -8.71875 C 16.703125 -9.6875 16.519531 -10.59375 16.15625 -11.4375 C 15.800781 -12.28125 15.3125 -13.015625 14.6875 -13.640625 C 14.0625 -14.273438 13.332031 -14.773438 12.5 -15.140625 C 11.664062 -15.515625 10.773438 -15.703125 9.828125 -15.703125 C 8.878906 -15.703125 7.988281 -15.515625 7.15625 -15.140625 C 6.320312 -14.773438 5.59375 -14.273438 4.96875 -13.640625 C 4.34375 -13.015625 3.847656 -12.28125 3.484375 -11.4375 C 3.128906 -10.59375 2.953125 -9.6875 2.953125 -8.71875 Z M 2.953125 -8.71875 "/></g></g></g><g fill="#fffced" fill-opacity="1"><g transform="translate(155.602887, 150.345561)"><g><path d="M 0.875 -17.5 L 6.921875 -17.5 L 6.921875 -15.53125 L 4.875 -15.53125 L 4.875 -5.71875 C 4.875 -5.09375 4.976562 -4.53125 5.1875 -4.03125 C 5.394531 -3.539062 5.6875 -3.128906 6.0625 -2.796875 C 6.4375 -2.460938 6.878906 -2.207031 7.390625 -2.03125 C 7.910156 -1.863281 8.476562 -1.78125 9.09375 -1.78125 C 9.71875 -1.78125 10.285156 -1.863281 10.796875 -2.03125 C 11.316406 -2.207031 11.765625 -2.460938 12.140625 -2.796875 C 12.515625 -3.128906 12.804688 -3.539062 13.015625 -4.03125 C 13.234375 -4.53125 13.34375 -5.09375 13.34375 -5.71875 L 13.34375 -15.53125 L 11.296875 -15.53125 L 11.296875 -17.5 L 17.34375 -17.5 L 17.34375 -15.53125 L 15.421875 -15.53125 L 15.421875 -5.65625 C 15.421875 -4.695312 15.257812 -3.851562 14.9375 -3.125 C 14.613281 -2.394531 14.164062 -1.78125 13.59375 -1.28125 C 13.03125 -0.789062 12.363281 -0.421875 11.59375 -0.171875 C 10.832031 0.078125 10 0.203125 9.09375 0.203125 C 8.195312 0.203125 7.363281 0.078125 6.59375 -0.171875 C 5.832031 -0.421875 5.164062 -0.789062 4.59375 -1.28125 C 4.03125 -1.78125 3.585938 -2.394531 3.265625 -3.125 C 2.953125 -3.851562 2.796875 -4.695312 2.796875 -5.65625 L 2.796875 -15.53125 L 0.875 -15.53125 Z M 0.875 -17.5 "/></g></g></g><g fill="#fffced" fill-opacity="1"><g transform="translate(177.400001, 150.345561)"><g><path d="M 0.875 -1.96875 L 2.28125 -1.96875 L 2.28125 -15.53125 L 0.875 -15.53125 L 0.875 -17.5 L 6.421875 -17.5 L 6.421875 -15.53125 L 4.34375 -15.53125 L 4.34375 -1.96875 L 11.421875 -1.96875 L 11.421875 -3.84375 L 13.40625 -3.84375 L 13.40625 0 L 0.875 0 Z M 0.875 -1.96875 "/></g></g></g><g fill="#fffced" fill-opacity="1"><g transform="translate(195.247736, 150.345561)"><g><path d="M 0.875 -1.96875 L 2.28125 -1.96875 L 2.28125 -15.53125 L 0.875 -15.53125 L 0.875 -17.5 L 13.046875 -17.5 L 13.046875 -13.65625 L 11.078125 -13.65625 L 11.078125 -15.53125 L 4.34375 -15.53125 L 4.34375 -9.796875 L 12.078125 -9.796875 L 12.078125 -7.828125 L 4.34375 -7.828125 L 4.34375 -1.96875 L 6.921875 -1.96875 L 6.921875 0 L 0.875 0 Z M 0.875 -1.96875 "/></g></g></g><g fill="#fffced" fill-opacity="1"><g transform="translate(212.745522, 150.345561)"><g><path d="M 0.875 -1.96875 L 2.28125 -1.96875 L 2.28125 -15.53125 L 0.875 -15.53125 L 0.875 -17.5 L 13.046875 -17.5 L 13.046875 -13.65625 L 11.078125 -13.65625 L 11.078125 -15.53125 L 4.34375 -15.53125 L 4.34375 -9.796875 L 12.078125 -9.796875 L 12.078125 -7.828125 L 4.34375 -7.828125 L 4.34375 -1.96875 L 11.421875 -1.96875 L 11.421875 -3.84375 L 13.40625 -3.84375 L 13.40625 0 L 0.875 0 Z M 0.875 -1.96875 "/></g></g></g><g fill="#fffced" fill-opacity="1"><g transform="translate(230.593257, 150.345561)"><g><path d="M 0.875 -1.96875 L 2.28125 -1.96875 L 2.28125 -15.53125 L 0.875 -15.53125 L 0.875 -17.5 L 6.421875 -17.5 L 6.421875 -15.53125 L 4.34375 -15.53125 L 4.34375 -1.96875 L 11.421875 -1.96875 L 11.421875 -3.84375 L 13.40625 -3.84375 L 13.40625 0 L 0.875 0 Z M 0.875 -1.96875 "/></g></g></g><g fill="#fffced" fill-opacity="1"><g transform="translate(248.440993, 150.345561)"><g><path d="M 4.625 -1.96875 L 6.78125 -1.96875 L 6.78125 -15.53125 L 2.84375 -15.53125 L 2.84375 -13.65625 L 0.875 -13.65625 L 0.875 -17.5 L 14.703125 -17.5 L 14.703125 -13.65625 L 12.71875 -13.65625 L 12.71875 -15.53125 L 8.84375 -15.53125 L 8.84375 -1.96875 L 10.671875 -1.96875 L 10.671875 0 L 4.625 0 Z M 4.625 -1.96875 "/></g></g></g><g fill="#aaaa00" fill-opacity="1"><g transform="translate(144.478991, 177.34556)"><g><path d="M 20.71875 -17.5 L 23.53125 -17.5 L 23.53125 -15.53125 L 21.34375 -15.53125 L 21.34375 -1.96875 L 23.53125 -1.96875 L 23.53125 0 L 17.46875 0 L 17.46875 -1.96875 L 19.28125 -1.96875 L 19.28125 -11.75 C 19.289062 -11.882812 19.300781 -12.015625 19.3125 -12.140625 C 19.320312 -12.273438 19.332031 -12.410156 19.34375 -12.546875 C 19.21875 -12.367188 19.085938 -12.175781 18.953125 -11.96875 C 18.816406 -11.769531 18.679688 -11.582031 18.546875 -11.40625 C 17.546875 -9.988281 16.5 -8.597656 15.40625 -7.234375 C 14.320312 -5.878906 13.253906 -4.507812 12.203125 -3.125 L 5.5 -11.875 L 5.046875 -12.546875 C 5.066406 -12.410156 5.078125 -12.273438 5.078125 -12.140625 C 5.085938 -12.015625 5.101562 -11.882812 5.125 -11.75 L 5.125 -1.96875 L 6.921875 -1.96875 L 6.921875 0 L 0.875 0 L 0.875 -1.96875 L 3.046875 -1.96875 L 3.046875 -15.53125 L 0.875 -15.53125 L 0.875 -17.5 L 3.671875 -17.5 C 5.109375 -15.644531 6.53125 -13.796875 7.9375 -11.953125 C 9.34375 -10.117188 10.765625 -8.273438 12.203125 -6.421875 C 13.628906 -8.273438 15.046875 -10.117188 16.453125 -11.953125 C 17.867188 -13.796875 19.289062 -15.644531 20.71875 -17.5 Z M 20.71875 -17.5 "/></g></g></g><g fill="#aaaa00" fill-opacity="1"><g transform="translate(172.450123, 177.34556)"><g><path d="M 0.875 -17.5 L 6.921875 -17.5 L 6.921875 -15.53125 L 4.875 -15.53125 L 4.875 -5.71875 C 4.875 -5.09375 4.976562 -4.53125 5.1875 -4.03125 C 5.394531 -3.539062 5.6875 -3.128906 6.0625 -2.796875 C 6.4375 -2.460938 6.878906 -2.207031 7.390625 -2.03125 C 7.910156 -1.863281 8.476562 -1.78125 9.09375 -1.78125 C 9.71875 -1.78125 10.285156 -1.863281 10.796875 -2.03125 C 11.316406 -2.207031 11.765625 -2.460938 12.140625 -2.796875 C 12.515625 -3.128906 12.804688 -3.539062 13.015625 -4.03125 C 13.234375 -4.53125 13.34375 -5.09375 13.34375 -5.71875 L 13.34375 -15.53125 L 11.296875 -15.53125 L 11.296875 -17.5 L 17.34375 -17.5 L 17.34375 -15.53125 L 15.421875 -15.53125 L 15.421875 -5.65625 C 15.421875 -4.695312 15.257812 -3.851562 14.9375 -3.125 C 14.613281 -2.394531 14.164062 -1.78125 13.59375 -1.28125 C 13.03125 -0.789062 12.363281 -0.421875 11.59375 -0.171875 C 10.832031 0.078125 10 0.203125 9.09375 0.203125 C 8.195312 0.203125 7.363281 0.078125 6.59375 -0.171875 C 5.832031 -0.421875 5.164062 -0.789062 4.59375 -1.28125 C 4.03125 -1.78125 3.585938 -2.394531 3.265625 -3.125 C 2.953125 -3.851562 2.796875 -4.695312 2.796875 -5.65625 L 2.796875 -15.53125 L 0.875 -15.53125 Z M 0.875 -17.5 "/></g></g></g><g fill="#aaaa00" fill-opacity="1"><g transform="translate(194.247237, 177.34556)"><g><path d="M 0.53125 -2.328125 L 0.53125 -5.21875 L 2.5 -5.21875 L 2.5 -3 C 2.9375 -2.664062 3.453125 -2.378906 4.046875 -2.140625 C 4.648438 -1.898438 5.328125 -1.78125 6.078125 -1.78125 C 6.503906 -1.78125 6.914062 -1.84375 7.3125 -1.96875 C 7.71875 -2.09375 8.070312 -2.273438 8.375 -2.515625 C 8.6875 -2.753906 8.9375 -3.054688 9.125 -3.421875 C 9.3125 -3.785156 9.40625 -4.210938 9.40625 -4.703125 C 9.40625 -5.566406 9.203125 -6.234375 8.796875 -6.703125 C 8.398438 -7.171875 7.898438 -7.53125 7.296875 -7.78125 C 6.703125 -8.039062 6.050781 -8.257812 5.34375 -8.4375 C 4.644531 -8.625 3.988281 -8.875 3.375 -9.1875 C 2.769531 -9.507812 2.265625 -9.953125 1.859375 -10.515625 C 1.453125 -11.085938 1.238281 -11.890625 1.21875 -12.921875 C 1.207031 -13.472656 1.285156 -14.023438 1.453125 -14.578125 C 1.617188 -15.128906 1.890625 -15.628906 2.265625 -16.078125 C 2.648438 -16.523438 3.160156 -16.890625 3.796875 -17.171875 C 4.429688 -17.453125 5.207031 -17.59375 6.125 -17.59375 C 6.425781 -17.59375 6.75 -17.578125 7.09375 -17.546875 C 7.445312 -17.515625 7.816406 -17.445312 8.203125 -17.34375 C 8.585938 -17.25 8.984375 -17.097656 9.390625 -16.890625 C 9.796875 -16.691406 10.195312 -16.425781 10.59375 -16.09375 L 10.59375 -13.65625 L 8.625 -13.65625 L 8.625 -15.125 C 8.3125 -15.257812 7.945312 -15.375 7.53125 -15.46875 C 7.113281 -15.570312 6.65625 -15.625 6.15625 -15.625 C 5.1875 -15.625 4.46875 -15.347656 4 -14.796875 C 3.53125 -14.242188 3.296875 -13.59375 3.296875 -12.84375 C 3.296875 -12.34375 3.410156 -11.9375 3.640625 -11.625 C 3.878906 -11.320312 4.191406 -11.066406 4.578125 -10.859375 C 4.960938 -10.648438 5.398438 -10.46875 5.890625 -10.3125 C 6.378906 -10.164062 6.878906 -10.003906 7.390625 -9.828125 C 7.898438 -9.660156 8.398438 -9.453125 8.890625 -9.203125 C 9.378906 -8.960938 9.816406 -8.644531 10.203125 -8.25 C 10.585938 -7.863281 10.894531 -7.382812 11.125 -6.8125 C 11.351562 -6.238281 11.46875 -5.523438 11.46875 -4.671875 C 11.46875 -3.921875 11.332031 -3.242188 11.0625 -2.640625 C 10.789062 -2.046875 10.414062 -1.535156 9.9375 -1.109375 C 9.457031 -0.679688 8.898438 -0.351562 8.265625 -0.125 C 7.640625 0.09375 6.976562 0.203125 6.28125 0.203125 C 5.644531 0.203125 5.023438 0.132812 4.421875 0 C 3.828125 -0.144531 3.28125 -0.332031 2.78125 -0.5625 C 2.28125 -0.800781 1.832031 -1.070312 1.4375 -1.375 C 1.039062 -1.675781 0.738281 -1.992188 0.53125 -2.328125 Z M 0.53125 -2.328125 "/></g></g></g><g fill="#aaaa00" fill-opacity="1"><g transform="translate(209.770345, 177.34556)"><g><path d="M 0.875 -1.96875 L 2.84375 -1.96875 L 2.84375 -15.53125 L 0.875 -15.53125 L 0.875 -17.5 L 6.921875 -17.5 L 6.921875 -15.53125 L 4.921875 -15.53125 L 4.921875 -1.96875 L 6.921875 -1.96875 L 6.921875 0 L 0.875 0 Z M 0.875 -1.96875 "/></g></g></g><g fill="#aaaa00" fill-opacity="1"><g transform="translate(221.144112, 177.34556)"><g><path d="M 12.40625 -13.65625 L 12.40625 -15.171875 C 11.570312 -15.535156 10.703125 -15.71875 9.796875 -15.71875 C 8.847656 -15.71875 7.960938 -15.535156 7.140625 -15.171875 C 6.316406 -14.804688 5.59375 -14.300781 4.96875 -13.65625 C 4.34375 -13.019531 3.847656 -12.273438 3.484375 -11.421875 C 3.128906 -10.578125 2.953125 -9.675781 2.953125 -8.71875 C 2.953125 -7.769531 3.128906 -6.867188 3.484375 -6.015625 C 3.847656 -5.171875 4.34375 -4.4375 4.96875 -3.8125 C 5.59375 -3.1875 6.316406 -2.691406 7.140625 -2.328125 C 7.960938 -1.960938 8.847656 -1.78125 9.796875 -1.78125 C 11.035156 -1.78125 12.175781 -2.085938 13.21875 -2.703125 L 14.34375 -1.046875 C 13.675781 -0.660156 12.960938 -0.351562 12.203125 -0.125 C 11.453125 0.09375 10.648438 0.203125 9.796875 0.203125 C 8.566406 0.203125 7.410156 -0.03125 6.328125 -0.5 C 5.242188 -0.96875 4.296875 -1.601562 3.484375 -2.40625 C 2.679688 -3.21875 2.046875 -4.164062 1.578125 -5.25 C 1.109375 -6.332031 0.875 -7.488281 0.875 -8.71875 C 0.875 -9.957031 1.109375 -11.117188 1.578125 -12.203125 C 2.046875 -13.296875 2.679688 -14.25 3.484375 -15.0625 C 4.296875 -15.875 5.242188 -16.515625 6.328125 -16.984375 C 7.410156 -17.460938 8.566406 -17.703125 9.796875 -17.703125 C 10.648438 -17.703125 11.453125 -17.59375 12.203125 -17.375 C 12.960938 -17.15625 13.6875 -16.847656 14.375 -16.453125 L 14.375 -13.65625 Z M 12.40625 -13.65625 "/></g></g></g><g fill="#fffced" fill-opacity="1"><g transform="translate(126.067944, 226.874414)"><g><path d="M 0.390625 -0.875 L 1 -0.875 L 1 -6.828125 L 0.390625 -6.828125 L 0.390625 -7.703125 L 5.734375 -7.703125 L 5.734375 -6 L 4.875 -6 L 4.875 -6.828125 L 1.90625 -6.828125 L 1.90625 -4.3125 L 5.3125 -4.3125 L 5.3125 -3.4375 L 1.90625 -3.4375 L 1.90625 -0.875 L 3.046875 -0.875 L 3.046875 0 L 0.390625 0 Z M 0.390625 -0.875 "/></g></g></g><g fill="#fffced" fill-opacity="1"><g transform="translate(135.71062, 226.874414)"><g><path d="M 0.390625 -0.875 L 1 -0.875 L 1 -6.828125 L 0.390625 -6.828125 L 0.390625 -7.703125 L 5.734375 -7.703125 L 5.734375 -6 L 4.875 -6 L 4.875 -6.828125 L 1.90625 -6.828125 L 1.90625 -4.3125 L 5.3125 -4.3125 L 5.3125 -3.4375 L 1.90625 -3.4375 L 1.90625 -0.875 L 5.03125 -0.875 L 5.03125 -1.6875 L 5.890625 -1.6875 L 5.890625 0 L 0.390625 0 Z M 0.390625 -0.875 "/></g></g></g><g fill="#fffced" fill-opacity="1"><g transform="translate(145.507186, 226.874414)"><g><path d="M 0.390625 -0.875 L 1 -0.875 L 1 -6.828125 L 0.390625 -6.828125 L 0.390625 -7.703125 L 5.734375 -7.703125 L 5.734375 -6 L 4.875 -6 L 4.875 -6.828125 L 1.90625 -6.828125 L 1.90625 -4.3125 L 5.3125 -4.3125 L 5.3125 -3.4375 L 1.90625 -3.4375 L 1.90625 -0.875 L 5.03125 -0.875 L 5.03125 -1.6875 L 5.890625 -1.6875 L 5.890625 0 L 0.390625 0 Z M 0.390625 -0.875 "/></g></g></g><g fill="#fffced" fill-opacity="1"><g transform="translate(155.303751, 226.874414)"><g><path d="M 0.390625 -0.875 L 1 -0.875 L 1 -6.828125 L 0.390625 -6.828125 L 0.390625 -7.703125 L 2.828125 -7.703125 L 2.828125 -6.828125 L 1.90625 -6.828125 L 1.90625 -0.875 L 5.03125 -0.875 L 5.03125 -1.6875 L 5.890625 -1.6875 L 5.890625 0 L 0.390625 0 Z M 0.390625 -0.875 "/></g></g></g><g fill="#fffced" fill-opacity="1"><g transform="translate(165.100316, 226.874414)"><g/></g></g><g fill="#fffced" fill-opacity="1"><g transform="translate(171.917996, 226.874414)"><g><path d="M 2.03125 -0.875 L 2.984375 -0.875 L 2.984375 -6.828125 L 1.25 -6.828125 L 1.25 -6 L 0.390625 -6 L 0.390625 -7.703125 L 6.46875 -7.703125 L 6.46875 -6 L 5.59375 -6 L 5.59375 -6.828125 L 3.890625 -6.828125 L 3.890625 -0.875 L 4.703125 -0.875 L 4.703125 0 L 2.03125 0 Z M 2.03125 -0.875 "/></g></g></g><g fill="#fffced" fill-opacity="1"><g transform="translate(182.28616, 226.874414)"><g><path d="M 5.4375 -7.703125 L 8.109375 -7.703125 L 8.109375 -6.828125 L 7.234375 -6.828125 L 7.234375 -0.875 L 8.109375 -0.875 L 8.109375 0 L 5.4375 0 L 5.4375 -0.875 L 6.328125 -0.875 L 6.328125 -3.4375 L 2.171875 -3.4375 L 2.171875 -0.875 L 3.046875 -0.875 L 3.046875 0 L 0.390625 0 L 0.390625 -0.875 L 1.25 -0.875 L 1.25 -6.828125 L 0.390625 -6.828125 L 0.390625 -7.703125 L 3.046875 -7.703125 L 3.046875 -6.828125 L 2.171875 -6.828125 L 2.171875 -4.3125 L 6.328125 -4.3125 L 6.328125 -6.828125 L 5.4375 -6.828125 Z M 5.4375 -7.703125 "/></g></g></g><g fill="#fffced" fill-opacity="1"><g transform="translate(194.292167, 226.874414)"><g><path d="M 0.390625 -0.875 L 1 -0.875 L 1 -6.828125 L 0.390625 -6.828125 L 0.390625 -7.703125 L 5.734375 -7.703125 L 5.734375 -6 L 4.875 -6 L 4.875 -6.828125 L 1.90625 -6.828125 L 1.90625 -4.3125 L 5.3125 -4.3125 L 5.3125 -3.4375 L 1.90625 -3.4375 L 1.90625 -0.875 L 5.03125 -0.875 L 5.03125 -1.6875 L 5.890625 -1.6875 L 5.890625 0 L 0.390625 0 Z M 0.390625 -0.875 "/></g></g></g><g fill="#fffced" fill-opacity="1"><g transform="translate(204.088733, 226.874414)"><g/></g></g><g fill="#fffced" fill-opacity="1"><g transform="translate(210.906412, 226.874414)"><g><path d="M 0.390625 -7.703125 L 3.046875 -7.703125 L 3.046875 -6.828125 L 2.25 -6.828125 C 2.59375 -6.023438 2.929688 -5.222656 3.265625 -4.421875 C 3.597656 -3.628906 3.941406 -2.832031 4.296875 -2.03125 L 4.390625 -1.671875 L 4.484375 -2.03125 C 4.828125 -2.832031 5.164062 -3.628906 5.5 -4.421875 C 5.832031 -5.222656 6.171875 -6.023438 6.515625 -6.828125 L 5.859375 -6.828125 L 5.859375 -7.703125 L 8.53125 -7.703125 L 8.53125 -6.828125 L 7.4375 -6.828125 C 6.925781 -5.617188 6.414062 -4.421875 5.90625 -3.234375 C 5.394531 -2.054688 4.890625 -0.859375 4.390625 0.359375 C 3.878906 -0.859375 3.367188 -2.054688 2.859375 -3.234375 C 2.347656 -4.421875 1.84375 -5.617188 1.34375 -6.828125 L 0.390625 -6.828125 Z M 0.390625 -7.703125 "/></g></g></g><g fill="#fffced" fill-opacity="1"><g transform="translate(223.330129, 226.874414)"><g><path d="M 0.390625 -0.875 L 1.25 -0.875 L 1.25 -6.828125 L 0.390625 -6.828125 L 0.390625 -7.703125 L 3.046875 -7.703125 L 3.046875 -6.828125 L 2.171875 -6.828125 L 2.171875 -0.875 L 3.046875 -0.875 L 3.046875 0 L 0.390625 0 Z M 0.390625 -0.875 "/></g></g></g><g fill="#fffced" fill-opacity="1"><g transform="translate(230.279714, 226.874414)"><g><path d="M 0.390625 -0.875 L 0.875 -0.875 L 0.875 -6.828125 L 0.390625 -6.828125 L 0.390625 -7.703125 L 2.890625 -7.703125 C 3.253906 -7.703125 3.582031 -7.664062 3.875 -7.59375 C 4.175781 -7.519531 4.429688 -7.40625 4.640625 -7.25 C 4.847656 -7.09375 5.007812 -6.890625 5.125 -6.640625 C 5.238281 -6.398438 5.296875 -6.113281 5.296875 -5.78125 C 5.296875 -5.320312 5.1875 -4.921875 4.96875 -4.578125 C 4.757812 -4.234375 4.4375 -4 4 -3.875 C 4.195312 -3.832031 4.394531 -3.757812 4.59375 -3.65625 C 4.789062 -3.550781 4.957031 -3.414062 5.09375 -3.25 C 5.238281 -3.09375 5.351562 -2.90625 5.4375 -2.6875 C 5.53125 -2.476562 5.578125 -2.242188 5.578125 -1.984375 C 5.578125 -1.648438 5.503906 -1.359375 5.359375 -1.109375 C 5.222656 -0.867188 5.039062 -0.664062 4.8125 -0.5 C 4.582031 -0.332031 4.316406 -0.207031 4.015625 -0.125 C 3.710938 -0.0390625 3.40625 0 3.09375 0 L 0.390625 0 Z M 1.796875 -3.4375 L 1.796875 -0.875 L 3.015625 -0.875 C 3.242188 -0.875 3.457031 -0.894531 3.65625 -0.9375 C 3.851562 -0.988281 4.023438 -1.066406 4.171875 -1.171875 C 4.328125 -1.285156 4.445312 -1.414062 4.53125 -1.5625 C 4.613281 -1.71875 4.65625 -1.90625 4.65625 -2.125 C 4.65625 -2.351562 4.601562 -2.550781 4.5 -2.71875 C 4.40625 -2.882812 4.273438 -3.019531 4.109375 -3.125 C 3.941406 -3.226562 3.75 -3.304688 3.53125 -3.359375 C 3.3125 -3.410156 3.085938 -3.4375 2.859375 -3.4375 Z M 1.796875 -6.828125 L 1.796875 -4.3125 L 2.984375 -4.3125 C 3.410156 -4.3125 3.75 -4.429688 4 -4.671875 C 4.257812 -4.910156 4.390625 -5.226562 4.390625 -5.625 C 4.390625 -6.0625 4.253906 -6.367188 3.984375 -6.546875 C 3.722656 -6.734375 3.378906 -6.828125 2.953125 -6.828125 Z M 1.796875 -6.828125 "/></g></g></g><g fill="#fffced" fill-opacity="1"><g transform="translate(239.757504, 226.874414)"><g><path d="M 0.390625 -0.875 L 1 -0.875 L 1 -6.828125 L 0.390625 -6.828125 L 0.390625 -7.703125 L 5.734375 -7.703125 L 5.734375 -6 L 4.875 -6 L 4.875 -6.828125 L 1.90625 -6.828125 L 1.90625 -4.3125 L 5.3125 -4.3125 L 5.3125 -3.4375 L 1.90625 -3.4375 L 1.90625 -0.875 L 5.03125 -0.875 L 5.03125 -1.6875 L 5.890625 -1.6875 L 5.890625 0 L 0.390625 0 Z M 0.390625 -0.875 "/></g></g></g><g fill="#fffced" fill-opacity="1"><g transform="translate(249.554069, 226.874414)"><g><path d="M 0.234375 -1.015625 L 0.234375 -2.296875 L 1.09375 -2.296875 L 1.09375 -1.3125 C 1.289062 -1.164062 1.519531 -1.039062 1.78125 -0.9375 C 2.039062 -0.832031 2.335938 -0.78125 2.671875 -0.78125 C 2.859375 -0.78125 3.039062 -0.804688 3.21875 -0.859375 C 3.394531 -0.921875 3.550781 -1.003906 3.6875 -1.109375 C 3.820312 -1.210938 3.929688 -1.34375 4.015625 -1.5 C 4.097656 -1.664062 4.140625 -1.851562 4.140625 -2.0625 C 4.140625 -2.445312 4.050781 -2.738281 3.875 -2.9375 C 3.695312 -3.144531 3.472656 -3.304688 3.203125 -3.421875 C 2.941406 -3.535156 2.65625 -3.632812 2.34375 -3.71875 C 2.039062 -3.800781 1.753906 -3.910156 1.484375 -4.046875 C 1.222656 -4.179688 1 -4.375 0.8125 -4.625 C 0.632812 -4.875 0.539062 -5.226562 0.53125 -5.6875 C 0.53125 -5.925781 0.566406 -6.164062 0.640625 -6.40625 C 0.710938 -6.65625 0.832031 -6.878906 1 -7.078125 C 1.164062 -7.273438 1.390625 -7.4375 1.671875 -7.5625 C 1.953125 -7.6875 2.289062 -7.75 2.6875 -7.75 C 2.820312 -7.75 2.96875 -7.738281 3.125 -7.71875 C 3.28125 -7.707031 3.441406 -7.675781 3.609375 -7.625 C 3.773438 -7.582031 3.945312 -7.515625 4.125 -7.421875 C 4.3125 -7.335938 4.488281 -7.222656 4.65625 -7.078125 L 4.65625 -6 L 3.796875 -6 L 3.796875 -6.65625 C 3.660156 -6.71875 3.5 -6.769531 3.3125 -6.8125 C 3.125 -6.851562 2.921875 -6.875 2.703125 -6.875 C 2.273438 -6.875 1.957031 -6.753906 1.75 -6.515625 C 1.550781 -6.273438 1.453125 -5.988281 1.453125 -5.65625 C 1.453125 -5.4375 1.503906 -5.257812 1.609375 -5.125 C 1.710938 -4.988281 1.847656 -4.875 2.015625 -4.78125 C 2.179688 -4.6875 2.375 -4.601562 2.59375 -4.53125 C 2.8125 -4.46875 3.03125 -4.398438 3.25 -4.328125 C 3.476562 -4.253906 3.695312 -4.160156 3.90625 -4.046875 C 4.125 -3.941406 4.316406 -3.800781 4.484375 -3.625 C 4.648438 -3.457031 4.785156 -3.25 4.890625 -3 C 4.992188 -2.75 5.046875 -2.4375 5.046875 -2.0625 C 5.046875 -1.726562 4.984375 -1.425781 4.859375 -1.15625 C 4.742188 -0.894531 4.582031 -0.671875 4.375 -0.484375 C 4.164062 -0.296875 3.921875 -0.148438 3.640625 -0.046875 C 3.359375 0.046875 3.066406 0.09375 2.765625 0.09375 C 2.484375 0.09375 2.207031 0.0625 1.9375 0 C 1.675781 -0.0625 1.4375 -0.144531 1.21875 -0.25 C 1 -0.351562 0.800781 -0.46875 0.625 -0.59375 C 0.457031 -0.726562 0.328125 -0.867188 0.234375 -1.015625 Z M 0.234375 -1.015625 "/></g></g></g><g clip-path="url(#c7d0178679)"><path fill="#dbb100" d="M 51 197.546875 L 324 197.546875 L 324 200.546875 L 51 200.546875 Z M 51 197.546875 " fill-opacity="1" fill-rule="nonzero"/></g><path fill="#c58c38" d="M 2.214844 504.925781 C -4.261719 506.386719 -10.921875 507.046875 -17.558594 506.894531 C -19.316406 506.851562 -20.6875 505.363281 -20.613281 503.609375 C -20.046875 490.042969 -21.851562 476.464844 -23.652344 462.988281 C -24.757812 454.714844 -25.863281 446.445312 -26.964844 438.171875 C -28.535156 426.449219 -30.101562 414.71875 -32.335938 403.105469 C -33.472656 397.207031 -34.792969 391.296875 -37.195312 385.789062 C -39.503906 380.5 -42.773438 375.671875 -46.394531 371.171875 C -51.394531 364.964844 -57.210938 359.246094 -64.28125 355.5625 C -76.609375 349.140625 -91.867188 349.648438 -104.621094 355.167969 C -117.378906 360.6875 -127.765625 370.796875 -135.410156 382.394531 C -140.808594 390.59375 -144.964844 399.605469 -147.695312 409.03125 C -156.679688 440.054688 -149.914062 473.605469 -155.753906 505.332031 C -156.039062 506.894531 -157.441406 508.003906 -159.03125 507.921875 L -176.539062 507.003906 C -178.152344 506.921875 -179.4375 505.640625 -179.527344 504.027344 C -181.269531 472.242188 -183.390625 438.757812 -176.210938 407.847656 C -168.574219 374.976562 -150.0625 343.394531 -120.914062 326.339844 C -116.769531 323.914062 -112.425781 321.789062 -107.847656 320.328125 C -101.769531 318.386719 -95.371094 317.640625 -89 317.289062 C -79.539062 316.761719 -70.046875 317.039062 -60.640625 318.140625 C -54.632812 318.84375 -48.613281 319.957031 -43.105469 322.441406 C -36.117188 325.597656 -30.253906 330.835938 -25.234375 336.621094 C -19.496094 343.230469 -14.707031 350.65625 -11.054688 358.601562 C -5.257812 371.210938 -2.378906 384.925781 0.425781 398.511719 C 7.441406 432.5 9.351562 467.878906 4.667969 502.269531 C 4.488281 503.582031 3.503906 504.632812 2.214844 504.925781 " fill-opacity="1" fill-rule="nonzero"/><g clip-path="url(#f21ff50f7b)"><path fill="#d6e3dd" d="M -160.945312 306.695312 C -167.902344 311.675781 -174.183594 317.660156 -179.382812 324.449219 C -184.753906 331.460938 -188.460938 339.589844 -191.769531 347.777344 C -211.96875 397.796875 -217.832031 453.511719 -210.152344 506.902344 C -202.925781 506.324219 -195.53125 506.070312 -188.339844 506.941406 C -188.359375 492.558594 -188.277344 478.175781 -188.09375 463.792969 C -187.695312 432.582031 -186.605469 400.410156 -173.753906 371.960938 C -168.804688 360.996094 -162.53125 350.648438 -155.652344 340.773438 C -148.511719 330.515625 -129.75 316.007812 -122.722656 313.171875 C -108.320312 307.359375 -93.285156 302.582031 -77.777344 301.710938 C -62.269531 300.839844 -46.144531 304.15625 -33.585938 313.285156 C -19.617188 323.433594 -4.582031 341.796875 1.015625 358.113281 C 12.601562 391.886719 15.789062 422.179688 15.160156 462.589844 C 14.9375 476.96875 14.402344 492.585938 15.238281 506.941406 C 20.117188 508.660156 25.492188 509.015625 30.660156 509.175781 C 32.175781 509.222656 33.796875 509.167969 35.03125 508.292969 C 36.953125 506.929688 37.167969 504.207031 37.195312 501.847656 C 37.273438 495.828125 37.347656 489.808594 37.421875 483.789062 C 37.867188 448.648438 38.292969 413.28125 32.410156 378.636719 C 28.910156 358.035156 23.054688 337.5 11.894531 319.824219 C 0.738281 302.148438 -16.207031 287.476562 -36.453125 282.21875 C -45.097656 279.972656 -54.089844 279.46875 -63.011719 279.078125 C -76.730469 278.480469 -122.328125 279.066406 -160.945312 306.695312 " fill-opacity="1" fill-rule="nonzero"/></g><path stroke-linecap="butt" transform="matrix(0.75, 0, 0, 0.75, 126.942915, 97.627698)" fill="none" stroke-linejoin="miter" d="M 0.74278 18.001613 C 54.076116 -3.331722 107.409453 -3.331722 160.74279 18.001613 " stroke="#545454" stroke-width="4" stroke-opacity="1" stroke-miterlimit="4"/><path stroke-linecap="butt" transform="matrix(0.749944, 0.0091323, -0.0091323, 0.749944, 158.522996, 111.127742)" fill="none" stroke-linejoin="miter" d="M 0.760348 9.779478 C 26.057815 -0.591824 51.361767 -0.592643 76.661786 9.777147 " stroke="#545454" stroke-width="4" stroke-opacity="1" stroke-miterlimit="4"/></svg>